<?xml version="1.0" encoding="UTF-8" standalone="no"?>
<!-- Created with Inkscape (http://www.inkscape.org/) -->

<svg
   width="202mm"
   height="202mm"
   viewBox="0 0 202 202"
   version="1.1"
   id="svg1"
   inkscape:version="1.4.2 (ebf0e940, 2025-05-08)"
   sodipodi:docname="Logo2.svg"
   xmlns:inkscape="http://www.inkscape.org/namespaces/inkscape"
   xmlns:sodipodi="http://sodipodi.sourceforge.net/DTD/sodipodi-0.dtd"
   xmlns="http://www.w3.org/2000/svg"
   xmlns:svg="http://www.w3.org/2000/svg">
  <sodipodi:namedview
     id="namedview1"
     pagecolor="#ffffff"
     bordercolor="#000000"
     borderopacity="0.41960784"
     inkscape:showpageshadow="2"
     inkscape:pageopacity="0.0"
     inkscape:pagecheckerboard="0"
     inkscape:deskcolor="#d1d1d1"
     inkscape:document-units="mm"
     inkscape:zoom="1.28"
     inkscape:cx="503.125"
     inkscape:cy="375.39063"
     inkscape:window-width="2384"
     inkscape:window-height="1340"
     inkscape:window-x="2977"
     inkscape:window-y="25"
     inkscape:window-maximized="0"
     inkscape:current-layer="layer1"
     showguides="true"
     inkscape:clip-to-page="false">
    <sodipodi:guide
       position="226.13604,-11.286784"
       orientation="0,-1"
       id="guide1"
       inkscape:locked="false" />
  </sodipodi:namedview>
  <defs
     id="defs1" />
  <g
     inkscape:label="Ebene 1"
     inkscape:groupmode="layer"
     id="layer1">
    <path
       d="m 128.26429,62.182134 a 10.261643,22.14245 0 0 0 -1.62417,0.768984 10.261643,22.14245 0 0 0 -7.07559,17.021478 v 8.301286 47.019698 h 0.0609 a 10.737119,12.579807 0 0 0 10.07213,12.43209 v 0.17469 h 24.44006 16.73951 0.4996 v -1.97936 -2.77747 a 8.9685167,9.3741752 0 0 0 -7.34925,-7.84995 H 160.9873 141.09893 129.69758 V 122.61466 106.26554 65.461889 62.182134 Z"
       style="fill:none;stroke:#000000;stroke-width:0.825278;stroke-linecap:square"
       id="path36" />
    <path
       d="m 62.680291,38.131298 a 14.837796,10.065151 0 0 0 -9.874338,7.277526 14.837796,10.065151 0 0 0 -0.3921,2.297677 14.837796,10.065151 0 0 0 0.0046,0.252797 H 52.283899 V 123.0051 135.29358 H 43.638175 40.977996 40.59797 a 8.9685167,9.3741752 0 0 0 -7.387211,8.14577 v 2.18584 2.27517 h 0.537554 15.847235 0.892283 1.796068 1.545972 a 10.737119,12.579807 0 0 0 8.586504,-11.34676 v -1.26002 -0.71274 -77.3587 a 14.837796,10.065151 0 0 0 0.04023,0.01044 8.4339022,9.3671296 0 0 1 0,-0.02182 8.4339022,9.3671296 0 0 1 7.107223,-9.250928 8.4339022,9.3671296 0 0 1 1.326926,-0.116466 8.4339022,9.3671296 0 0 1 1.32693,0.116466 h 2.531969 3.426552 a 6.5118813,9.2601897 0 0 0 -1.948996,1.997232 6.5118813,9.2601897 0 0 0 -1.477556,3.525931 v 2.909819 2.808559 6.337814 57.198453 12.55649 12.60678 h 1.873678 a 9.7409303,12.649789 0 0 0 8.259348,-10.20654 v -2.40031 -2.25467 -69.323457 -3.769455 -6.561491 a 8.1554494,9.3741752 0 0 1 1.278058,-2.584889 8.1554494,9.3741752 0 0 1 3.336859,-2.840332 h 6.049372 1.540222 3.49439 A 6.5118813,9.2601897 0 0 0 98.356049,50.1145 6.5118813,9.2601897 0 0 0 97.08719,52.819169 v 7.415174 4.199615 58.023682 12.83642 12.40429 a 9.7409303,12.649789 0 0 0 0.661729,0.029 9.7409303,12.649789 0 0 0 9.470751,-9.693 V 135.294 132.12148 63.64442 59.401789 55.26305 a 8.1554494,9.3741752 0 0 1 1.40914,-3.522616 8.1554494,9.3741752 0 0 1 6.39719,-3.780711 8.1554494,9.3741752 0 0 1 0.14833,-0.0013 8.1554494,9.3741752 0 0 1 0.14778,0.0013 h 7.11869 8.69576 4.62296 a 8.8318682,9.3572685 0 0 1 6.13099,6.281554 v 3.164604 2.334732 50.533727 3.0177 a 9.7409303,12.649789 0 0 0 9.67141,11.14095 9.7409303,12.649789 0 0 0 0.14258,-9.7e-4 c 0.18617,-0.0776 0.3185,-0.28236 0.3185,-0.52412 V 99.147503 48.960563 a 14.837796,10.065151 0 0 0 0.0927,-1.121706 14.837796,10.065151 0 0 0 -0.59621,-2.823788 14.837796,10.065151 0 0 0 -10.32392,-6.883771 H 133.3599 71.823377 Z"
       style="fill:none;stroke:#000000;stroke-width:0.704957;stroke-linecap:square"
       id="path37" />
    <path
       style="fill:#000000;stroke:#000000;stroke-width:0.438493;stroke-linecap:square;stroke-linejoin:miter"
       d="m 33.67285,144.92649 c 0.05447,-2.49628 0.07397,-2.61994 0.613178,-3.88395 0.682675,-1.60031 2.139573,-3.32302 3.508403,-4.14846 1.848396,-1.11463 2.352949,-1.18142 8.926555,-1.18142 h 5.95257 l 0.0071,-43.378473 c 0.0039,-23.858164 0.06766,-43.978858 0.141603,-44.712663 0.07395,-0.733804 0.321741,-1.805048 0.550632,-2.38054 1.096047,-2.755734 4.216725,-5.148291 8.24568,-6.321778 1.185236,-0.345218 2.37807,-0.354191 40.815969,-0.306944 l 39.59504,0.04866 1.46351,0.516717 c 4.9259,1.739152 8.08312,5.01978 8.11787,8.435169 0.006,0.635646 -0.006,18.064897 -0.0283,38.731679 l -0.0401,37.575953 h -0.53499 c -0.29424,0 -0.96516,-0.12897 -1.49092,-0.28659 -2.99453,-0.89782 -5.50774,-3.79223 -6.72408,-7.74401 l -0.43766,-1.42188 -0.0813,-30.416412 -0.0814,-30.416398 -0.46811,-1.023937 c -0.77177,-1.688241 -2.22326,-3.264713 -3.89039,-4.225349 l -1.44735,-0.833993 h -11.25092 c -12.34384,0 -12.21107,-0.01076 -14.07919,1.135395 -1.70161,1.043948 -3.25553,3.142948 -3.90749,5.278097 -0.32115,1.051703 -0.32496,1.554989 -0.32496,42.617049 v 41.552768 l -0.46804,1.47616 c -0.96388,3.04004 -2.66954,5.30884 -4.93769,6.56789 -1.1295,0.62702 -2.750862,1.1307 -3.659999,1.13704 -0.162069,9.6e-4 -0.203253,-9.58393 -0.203253,-47.30511 V 52.704642 l 0.442242,-1.006139 c 0.468414,-1.06564 1.958671,-2.924937 2.50412,-3.124203 0.21806,-0.07966 0.30838,-0.251845 0.27472,-0.52376 l -0.0502,-0.405074 -5.746077,-0.04921 -5.746086,-0.04919 -0.966805,0.593142 c -1.135778,0.69681 -2.728779,2.573408 -3.315133,3.905317 l -0.405929,0.92208 v 42.184902 c 0,41.372543 -0.0062,42.212693 -0.320676,43.628113 -0.913343,4.11062 -3.671582,7.46303 -6.948663,8.44555 -0.511314,0.1533 -1.206989,0.2787 -1.545946,0.2787 h -0.616176 v -46.88151 c 0,-52.589528 -0.126176,-47.543169 1.248507,-49.933929 0.565096,-0.982769 0.991298,-1.462242 1.930959,-2.172311 l 1.20581,-0.911181 -4.825108,-0.09681 c -5.49667,-0.11027 -6.197469,-0.0148 -8.030687,1.094046 -2.044528,1.236667 -3.514865,3.299848 -4.319726,6.061459 -0.287019,0.984808 -0.303569,2.820192 -0.381391,42.302203 l -0.08135,41.272733 -0.434104,1.36767 c -0.88643,2.79274 -2.765548,5.31165 -4.937234,6.61826 -2.19199,1.31878 -1.795011,1.27935 -12.88647,1.27935 h -9.986637 z"
       id="path38" />
    <path
       style="fill:#000000;stroke:#000000;stroke-width:0.438493;stroke-linecap:square;stroke-linejoin:miter"
       d="m 129.26446,147.13084 c -2.31278,-0.35624 -4.39936,-1.52629 -5.9981,-3.36337 -1.89864,-2.18175 -2.8635,-4.5894 -3.11261,-7.76696 -0.081,-1.03338 -0.14979,-14.0606 -0.15278,-28.9494 -0.005,-26.602669 3.1e-4,-27.110299 0.33393,-29.370687 0.83345,-5.648648 2.56244,-10.096214 4.98184,-12.815208 1.04185,-1.17084 2.59403,-2.151927 3.40455,-2.151927 h 0.54317 v 36.593272 36.59326 h 17.63615 17.63616 l 1.05278,0.43989 c 2.1561,0.90085 3.79429,2.56755 4.71894,4.8011 0.47159,1.13914 0.50708,1.37469 0.55693,3.69678 l 0.0532,2.48011 -20.37992,-0.0246 c -11.20897,-0.0135 -20.78239,-0.0866 -21.2743,-0.16231 z"
       id="path39" />
    <path
       style="fill:#000000;fill-opacity:1;stroke:#000000;stroke-width:0.793763;stroke-linecap:square;stroke-linejoin:miter"
       d="m 97.473533,147.57507 c 0.0623,-0.4165 0.232425,-0.79649 0.284579,-1.21668 0.02743,-0.22109 -9.55e-4,-0.52908 -0.02036,-0.74869 -0.03087,-0.35477 0.03421,-0.72192 0,-1.07627 -0.0067,-0.0714 -0.03287,-0.13924 -0.04071,-0.2106 -0.0057,-0.0546 0.01529,-0.13443 0,-0.18716 -0.0076,-0.0304 -0.0067,-0.0648 -0.02036,-0.0936 -0.0028,-0.006 -0.01547,0.005 -0.02035,0 -0.0076,-0.01 0.0039,-0.057 0,-0.0702 -0.01682,-0.058 -0.03889,-0.11288 -0.06096,-0.16378 -0.01042,-0.024 0.0048,-0.0674 0,-0.0936 -0.02465,-0.11314 -0.07023,-0.21937 -0.101617,-0.32755 -0.0039,-0.0149 0.0028,-0.0314 0,-0.0468 -0.02522,-0.14534 -0.0665,-0.31681 -0.121954,-0.44458 -0.02933,-0.0678 0.02084,-0.18521 0,-0.25735 -0.0028,-0.0104 -0.0173,-0.0131 -0.02036,-0.0234 -0.02093,-0.0725 0,-0.5357 0,-0.65514 0,-0.0104 -0.0048,-0.0641 0,-0.0702 0.0048,-0.005 0.01548,0.005 0.02036,0 0.0039,-0.005 0.05829,-0.15464 0.06096,-0.16377 0.01797,-0.0618 0.0028,-0.24185 0.02035,-0.28076 0.03172,-0.0729 0.03698,-0.15126 0.06096,-0.23398 0.0147,-0.0506 -0.0048,-0.13598 0,-0.18718 0.0028,-0.0319 0.01692,-0.0618 0.02036,-0.0936 0.01166,-0.10727 -0.01329,-0.2205 0,-0.32757 0.01262,-0.10203 0.02141,-0.0748 0.04061,-0.16378 0.0099,-0.0441 -0.0067,-0.0958 0,-0.14039 0.02188,-0.12582 0.0019,-0.24968 0.02036,-0.37434 0.02484,-0.17154 0.02035,-0.34065 0.02035,-0.51475"
       id="path43" />
    <path
       style="fill:#000000;fill-opacity:1;stroke:#000000;stroke-width:0.793763;stroke-linecap:square;stroke-linejoin:miter"
       d="m 129.93522,147.38788 c 0.45979,-0.0177 0.92328,0.033 1.38223,0 0.0544,-0.004 0.10807,-0.0194 0.16262,-0.0233 0.18332,-0.0132 0.36558,-0.004 0.54881,-0.0234 0.35717,-0.0374 0.70385,-0.13637 1.05699,-0.18718 0.11817,-0.0171 0.24737,0.007 0.36589,0 0.16478,-0.0104 0.32295,-0.0234 0.48783,-0.0234 0.10012,0 0.20677,0.0189 0.30488,0 0.10277,-0.0198 0.199,-0.0466 0.30493,-0.0466 0.20602,0 0.46877,-0.0775 0.67078,0 0.0115,0.004 0.0528,-0.01 0.0609,0 0.0102,0.0104 0.0158,0.0545 0.0204,0.0702 0.0128,0.0422 0.0814,0.11697 0.0609,0.16379 -0.0159,0.0369 -0.0204,0.0265 -0.0204,0.0702"
       id="path45" />
    <path
       style="fill:#000000;fill-opacity:1;stroke:#000000;stroke-width:0.793763;stroke-linecap:square;stroke-linejoin:miter"
       d="m 75.439427,52.816255 c -0.02034,0.01559 -0.07452,0.02341 -0.06097,0.0468 0.01354,0.02341 0.07355,-0.07091 0.06097,-0.0468 -0.01999,0.03839 -0.08349,0.0915 -0.111795,0.140383 -0.07327,0.126501 -0.125833,0.374972 -0.142285,0.526437 -0.01072,0.09959 0.0067,0.20403 0,0.304167 -0.0012,0.01604 -0.0084,0.03083 -0.01007,0.04678 -0.0079,0.07297 0.0079,0.149324 0,0.222273 -0.01047,0.09644 -0.0147,0.159489 -0.01007,0.269068 0.0027,0.06201 0.01545,0.125309 0.02034,0.187177 0.0072,0.0922 0.0035,0.220745 0,0.304165 -0.0022,0.04678 -0.01585,0.09419 -0.02034,0.140382 -0.0018,0.01942 0.0023,0.03916 0,0.05848 -0.005,0.04019 -0.03051,0.07758 -0.03051,0.116993"
       id="path46" />
    <path
       style="fill:#000000;fill-opacity:1;stroke:#000000;stroke-width:0.793763;stroke-linecap:square;stroke-linejoin:miter"
       d="m 61.657942,119.75575 c 0.262179,1.10622 0.335181,2.26615 0.406535,3.41599 0.01365,0.22003 0.06855,0.43502 0.08131,0.65512 0.02976,0.51397 0.02232,1.07732 0,1.59102 0.139411,0.22561 -0.06637,0.37255 -0.08131,0.56154 -0.101168,1.28092 0.121848,-0.46729 -0.0813,0.7019 -0.03191,0.18353 0.0091,0.37466 0,0.56154 -0.02699,0.5595 -0.07829,1.12168 -0.04064,1.68458 0.02125,0.31814 0.02712,0.71768 0.08131,1.02949 0.04849,0.27903 0.127379,0.55844 0.162614,0.84229 0.01301,0.10485 -0.02224,0.22516 0,0.32758 0.0072,0.0338 0.03106,0.0605 0.04064,0.0936 5.89e-4,0.002 0.0453,0.82089 0.04064,0.84229 -0.0047,0.0215 -0.03458,0.0258 -0.04064,0.0467 -0.03428,0.1184 0.01345,0.25053 0,0.37437 -0.0039,0.0345 -0.0333,0.0597 -0.04064,0.0936 -0.03168,0.14589 -0.01,0.3144 -0.04065,0.46795 -0.133802,0.6674 -0.308028,1.33188 -0.406529,2.01217 -0.02411,0.16655 -0.01645,0.34757 -0.04064,0.51473 -0.01409,0.0973 -0.0645,0.18404 -0.08131,0.28078 -0.01891,0.10892 -0.0093,0.1726 -0.04064,0.28074 -0.0077,0.0266 0.01634,0.12162 0,0.1404 -0.0097,0.0115 -0.03106,-0.0115 -0.04064,0 -0.07225,0.0831 0.121963,0.48437 0.121963,0.51474"
       id="path47" />
    <path
       style="fill:#000000;fill-opacity:1;stroke:#000000;stroke-width:0.793763;stroke-linecap:square;stroke-linejoin:miter"
       d="m 61.962495,135.10794 c 0.0044,0.0344 0.01692,0.0663 0.02513,0.0992 0.0031,0.0128 0.0038,0.0251 0.0072,0.0373 0.0027,0.01 0.0079,0.0161 0.01073,0.0248 0.01787,0.0535 0.02607,0.1115 0.04312,0.16544 0.0165,0.0523 0.03608,0.1039 0.0503,0.15718 0.0091,0.0339 0.01409,0.0691 0.02155,0.10327 0.0081,0.0379 0.02817,0.12905 0.03236,0.15303 0.0012,0.006 -5.89e-4,0.0138 0,0.0206 0.0034,0.0346 0.01187,0.0686 0.01436,0.10327 0.0012,0.0165 -5.9e-4,0.033 0,0.0497 -0.0081,0.0249 0.0061,0.0467 0.0072,0.0703 5.89e-4,0.0129 -5.89e-4,0.0812 0,0.0952 0.0018,0.0458 0.0085,0.0946 0.0036,0.14061 -5.88e-4,0.004 -0.0031,0.007 -0.0036,0.0129 -0.0012,0.01 0.0012,0.0194 0,0.0289 -0.0039,0.0317 -0.0068,0.0631 -0.01073,0.0951 -0.0012,0.006 -0.0023,0.0138 -0.0036,0.0206 -0.0012,0.002 -0.0031,0.005 -0.0036,0.007 -0.01072,0.0115 -0.0017,0.0249 -0.0036,0.0373 -0.0055,0.0344 -0.01419,0.0694 -0.02155,0.10327 -0.0052,0.024 -0.02648,0.0609 -0.03593,0.0827 -0.0046,0.0104 -0.01352,0.0187 -0.01796,0.0289 -5.88e-4,9.7e-4 8.83e-4,0.002 0,0.004 -0.0023,0.002 -0.01796,0.0104 -0.01796,0.0165"
       id="path49" />
    <path
       style="fill:#000000;fill-opacity:1;stroke:#000000;stroke-width:0.850361;stroke-linecap:square;stroke-linejoin:miter"
       d="m 133.08196,147.44777 c 0.088,-0.022 0.28608,0.0221 0.26407,-0.0662 -0.022,-0.0883 -0.35411,0.0775 -0.26407,0.0662 0.26566,-0.0333 0.52717,-0.0942 0.7922,-0.13229 0.36128,-0.0517 0.75779,0 1.1223,0 0.78932,0 1.58806,-0.0329 2.37657,0 1.08888,0.0454 2.20922,0.13904 3.30082,0.0663 0.15529,-0.0104 0.30687,-0.0558 0.46215,-0.0663 0.35129,-0.0234 0.70521,0.0271 1.05625,0 0.25707,-0.0199 0.46329,-0.0663 0.72617,-0.0663 0.94114,0 1.89745,0.16044 2.83872,0.0663 0.88509,-0.0886 1.75025,-0.19843 2.64067,-0.19843 0.13584,0 0.32998,-0.033 0.46211,0 0.24216,0.0607 0.47712,0.15684 0.72617,0.19843 0.0651,0.0104 0.15137,-0.0466 0.19805,0 0.0615,0.0617 -0.005,0.0663 0.13205,0.0663"
       id="path50" />
    <path
       style="fill:none;fill-opacity:1;stroke:#000000;stroke-width:7.75553;stroke-linecap:square;stroke-linejoin:miter;stroke-dasharray:none"
       id="path53"
       sodipodi:type="arc"
       sodipodi:cx="100.9979"
       sodipodi:cy="100.81592"
       sodipodi:rx="96.120117"
       sodipodi:ry="96.30632"
       sodipodi:start="0"
       sodipodi:end="6.2820806"
       sodipodi:arc-type="arc"
       d="M 197.11802,100.81592 A 96.120117,96.30632 0 0 1 101.02445,197.12223 96.120117,96.30632 0 0 1 4.8777994,100.86911 96.120117,96.30632 0 0 1 100.91826,4.5096308 96.120117,96.30632 0 0 1 197.11796,100.70953"
       sodipodi:open="true" />
  </g>
</svg>
